<mxfile host="Electron" modified="2023-04-30T15:15:30.113Z" agent="Mozilla/5.0 (Macintosh; Intel Mac OS X 10_15_7) AppleWebKit/537.36 (KHTML, like Gecko) draw.io/21.2.1 Chrome/112.0.5615.87 Electron/24.1.2 Safari/537.36" etag="YxPuDeOsPVcr8kLN5SeG" version="21.2.1" type="device">
  <diagram name="Page-1" id="sTeGwQV9_m6BofXgbJ5z">
    <mxGraphModel dx="2238" dy="1778" grid="1" gridSize="10" guides="1" tooltips="1" connect="1" arrows="1" fold="1" page="1" pageScale="1" pageWidth="1169" pageHeight="1654" math="0" shadow="0">
      <root>
        <mxCell id="0" />
        <mxCell id="1" parent="0" />
        <mxCell id="vNXa2KsQY14kPwiRae87-1" value="Casa" style="rounded=1;whiteSpace=wrap;html=1;align=left;spacingLeft=12;spacingTop=7;spacing=0;fontSize=14;fillColor=none;strokeColor=#82b366;verticalAlign=top;arcSize=0;strokeWidth=1;fontFamily=Verdana;sketch=1;curveFitting=1;jiggle=2;shadow=0;glass=0;fillStyle=auto;" parent="1" vertex="1">
          <mxGeometry x="120" y="220.57999999999998" width="500" height="279.42" as="geometry" />
        </mxCell>
        <mxCell id="9VNMI-Gynohl_PvULlB7-31" value="" style="group" vertex="1" connectable="0" parent="1">
          <mxGeometry x="190" y="235.29000000000002" width="190" height="114.71" as="geometry" />
        </mxCell>
        <mxCell id="9VNMI-Gynohl_PvULlB7-32" value="" style="shape=parallelogram;perimeter=parallelogramPerimeter;whiteSpace=wrap;html=1;fixedSize=1;size=10;rounded=1;sketch=1;curveFitting=1;jiggle=2;fontSize=11;strokeWidth=1;fillColor=#F2FFF2;strokeColor=#82b366;fillStyle=solid;arcSize=14;" vertex="1" parent="9VNMI-Gynohl_PvULlB7-31">
          <mxGeometry width="190" height="114.71" as="geometry" />
        </mxCell>
        <mxCell id="9VNMI-Gynohl_PvULlB7-34" value="&lt;b style=&quot;border-color: var(--border-color); color: rgb(0, 0, 0); font-family: Verdana; font-size: 10px; font-style: normal; font-variant-ligatures: normal; font-variant-caps: normal; letter-spacing: normal; orphans: 2; text-indent: 0px; text-transform: none; widows: 2; word-spacing: 0px; -webkit-text-stroke-width: 0px; background-color: initial; text-decoration-thickness: initial; text-decoration-style: initial; text-decoration-color: initial;&quot;&gt;Router&lt;br style=&quot;font-size: 10px;&quot;&gt;&lt;/b&gt;&lt;b style=&quot;border-color: var(--border-color); color: rgb(0, 0, 0); font-family: Verdana; font-size: 10px; font-style: normal; font-variant-ligatures: normal; font-variant-caps: normal; letter-spacing: normal; orphans: 2; text-indent: 0px; text-transform: none; widows: 2; word-spacing: 0px; -webkit-text-stroke-width: 0px; background-color: initial; text-decoration-thickness: initial; text-decoration-style: initial; text-decoration-color: initial;&quot;&gt;Firewall&amp;nbsp;&lt;/b&gt;&lt;b style=&quot;border-color: var(--border-color); color: rgb(0, 0, 0); font-family: Verdana; font-size: 10px; font-style: normal; font-variant-ligatures: normal; font-variant-caps: normal; letter-spacing: normal; orphans: 2; text-indent: 0px; text-transform: none; widows: 2; word-spacing: 0px; -webkit-text-stroke-width: 0px; background-color: initial; text-decoration-thickness: initial; text-decoration-style: initial; text-decoration-color: initial;&quot;&gt;(VM)&lt;/b&gt;" style="text;whiteSpace=wrap;html=1;align=left;fontSize=10;" vertex="1" parent="9VNMI-Gynohl_PvULlB7-31">
          <mxGeometry x="15.68965517241378" y="2.5399999999999636" width="79.3103448275862" height="34.33111111111111" as="geometry" />
        </mxCell>
        <mxCell id="z99PI1cJXAMRWRogK8VI-193" value="Internet" style="ellipse;shape=cloud;whiteSpace=wrap;html=1;fillColor=none;strokeColor=#ae4132;fontSize=16;sketch=1;curveFitting=1;jiggle=2;fontFamily=Verdana;labelPosition=center;verticalLabelPosition=middle;align=center;verticalAlign=middle;" parent="1" vertex="1">
          <mxGeometry x="132.5" y="80" width="427.5" height="99.86" as="geometry" />
        </mxCell>
        <mxCell id="z99PI1cJXAMRWRogK8VI-212" value="" style="orthogonalLoop=1;jettySize=auto;html=1;startArrow=none;startFill=0;startSize=2;endSize=2;endArrow=none;endFill=0;exitX=0.145;exitY=0.145;exitDx=0;exitDy=0;sketch=1;curveFitting=1;jiggle=2;entryX=0.51;entryY=0.938;entryDx=0;entryDy=0;entryPerimeter=0;strokeWidth=0.5;exitPerimeter=0;curved=1;" parent="1" target="z99PI1cJXAMRWRogK8VI-193" edge="1" source="UGnT0N85BE51naAXe4o1-1">
          <mxGeometry relative="1" as="geometry">
            <mxPoint x="410.885" y="231.57999999999993" as="sourcePoint" />
            <mxPoint x="440" y="151.58000000000004" as="targetPoint" />
            <Array as="points">
              <mxPoint x="280" y="220" />
              <mxPoint x="330" y="200" />
            </Array>
          </mxGeometry>
        </mxCell>
        <mxCell id="UGnT0N85BE51naAXe4o1-1" value="&lt;div style=&quot;text-align: left;&quot;&gt;&lt;br&gt;&lt;/div&gt;" style="points=[[0.5,0,0],[1,0.5,0],[0.5,1,0],[0,0.5,0],[0.145,0.145,0],[0.8555,0.145,0],[0.855,0.8555,0],[0.145,0.855,0]];verticalLabelPosition=middle;html=1;verticalAlign=middle;aspect=fixed;align=right;pointerEvents=1;shape=mxgraph.cisco19.rect;prIcon=router;fillColor=#d5e8d4;strokeColor=#82b366;fontSize=15;fontFamily=Verdana;spacing=5;labelPosition=left;fontStyle=0" parent="1" vertex="1">
          <mxGeometry x="295" y="260" width="70" height="70" as="geometry" />
        </mxCell>
        <mxCell id="9VNMI-Gynohl_PvULlB7-2" value="LAN" style="shape=cylinder3;whiteSpace=wrap;html=1;boundedLbl=1;backgroundOutline=1;size=6;rotation=90;sketch=1;curveFitting=1;jiggle=2;shadow=1;horizontal=0;" vertex="1" parent="1">
          <mxGeometry x="212.5" y="372.5" width="20" height="135" as="geometry" />
        </mxCell>
        <mxCell id="9VNMI-Gynohl_PvULlB7-3" value="WiFi" style="ellipse;shape=cloud;whiteSpace=wrap;html=1;sketch=1;curveFitting=1;jiggle=2;shadow=1;" vertex="1" parent="1">
          <mxGeometry x="260" y="400" width="120" height="80" as="geometry" />
        </mxCell>
        <mxCell id="9VNMI-Gynohl_PvULlB7-5" value="" style="orthogonalLoop=1;jettySize=auto;html=1;startArrow=none;startFill=0;startSize=2;endSize=2;endArrow=none;endFill=0;exitX=0;exitY=0.5;exitDx=0;exitDy=0;sketch=1;curveFitting=1;jiggle=2;entryX=0.145;entryY=0.855;entryDx=0;entryDy=0;entryPerimeter=0;strokeWidth=0.5;exitPerimeter=0;curved=1;" edge="1" parent="1" source="9VNMI-Gynohl_PvULlB7-2" target="UGnT0N85BE51naAXe4o1-1">
          <mxGeometry relative="1" as="geometry">
            <mxPoint x="435" y="250" as="sourcePoint" />
            <mxPoint x="344" y="161" as="targetPoint" />
            <Array as="points">
              <mxPoint x="270" y="390" />
              <mxPoint x="270" y="340" />
            </Array>
          </mxGeometry>
        </mxCell>
        <mxCell id="9VNMI-Gynohl_PvULlB7-6" value="" style="orthogonalLoop=1;jettySize=auto;html=1;startArrow=none;startFill=0;startSize=2;endSize=2;endArrow=none;endFill=0;sketch=1;curveFitting=1;jiggle=2;entryX=0.855;entryY=0.8555;entryDx=0;entryDy=0;entryPerimeter=0;strokeWidth=0.5;exitX=0.5;exitY=1;exitDx=0;exitDy=0;exitPerimeter=0;curved=1;" edge="1" parent="1" source="9VNMI-Gynohl_PvULlB7-7" target="UGnT0N85BE51naAXe4o1-1">
          <mxGeometry relative="1" as="geometry">
            <mxPoint x="660" y="280" as="sourcePoint" />
            <mxPoint x="410" y="310" as="targetPoint" />
            <Array as="points">
              <mxPoint x="450" y="360" />
              <mxPoint x="400" y="360" />
            </Array>
          </mxGeometry>
        </mxCell>
        <mxCell id="9VNMI-Gynohl_PvULlB7-7" value="vlan X" style="shape=cylinder3;whiteSpace=wrap;html=1;boundedLbl=1;backgroundOutline=1;size=6;rotation=90;sketch=1;curveFitting=1;jiggle=2;shadow=1;horizontal=0;" vertex="1" parent="1">
          <mxGeometry x="540" y="330" width="20" height="110" as="geometry" />
        </mxCell>
        <mxCell id="9VNMI-Gynohl_PvULlB7-8" value="vlan Y" style="shape=cylinder3;whiteSpace=wrap;html=1;boundedLbl=1;backgroundOutline=1;size=6;rotation=90;sketch=1;curveFitting=1;jiggle=2;shadow=1;horizontal=0;" vertex="1" parent="1">
          <mxGeometry x="480" y="400" width="20" height="110" as="geometry" />
        </mxCell>
        <mxCell id="9VNMI-Gynohl_PvULlB7-10" value="" style="orthogonalLoop=1;jettySize=auto;html=1;startArrow=none;startFill=0;startSize=2;endSize=2;endArrow=none;endFill=0;sketch=1;curveFitting=1;jiggle=2;strokeWidth=0.5;exitX=0.5;exitY=1;exitDx=0;exitDy=0;exitPerimeter=0;entryX=0.5;entryY=1;entryDx=0;entryDy=0;entryPerimeter=0;curved=1;" edge="1" parent="1" source="9VNMI-Gynohl_PvULlB7-8" target="UGnT0N85BE51naAXe4o1-1">
          <mxGeometry relative="1" as="geometry">
            <mxPoint x="465" y="395" as="sourcePoint" />
            <mxPoint x="370" y="310" as="targetPoint" />
            <Array as="points">
              <mxPoint x="400" y="380" />
              <mxPoint x="340" y="370" />
            </Array>
          </mxGeometry>
        </mxCell>
        <mxCell id="9VNMI-Gynohl_PvULlB7-11" value="&lt;div style=&quot;text-align: left;&quot;&gt;&lt;font face=&quot;Courier New&quot; data-font-src=&quot;https://fonts.googleapis.com/css?family=Rock+Salt&quot;&gt;knockd&lt;/font&gt;&lt;/div&gt;" style="shape=parallelogram;perimeter=parallelogramPerimeter;whiteSpace=wrap;html=1;fixedSize=1;size=10;rounded=1;fontSize=11;strokeWidth=0.6;labelPosition=center;verticalLabelPosition=middle;align=center;verticalAlign=middle;fontFamily=Verdana;" vertex="1" parent="1">
          <mxGeometry x="480" y="240.00000000000006" width="70" height="30" as="geometry" />
        </mxCell>
        <mxCell id="9VNMI-Gynohl_PvULlB7-12" value="&lt;div style=&quot;text-align: left;&quot;&gt;&lt;font face=&quot;Courier New&quot; data-font-src=&quot;https://fonts.googleapis.com/css?family=Rock+Salt&quot;&gt;OpenVPN&lt;/font&gt;&lt;/div&gt;" style="shape=parallelogram;perimeter=parallelogramPerimeter;whiteSpace=wrap;html=1;fixedSize=1;size=10;rounded=1;fontSize=11;strokeWidth=0.6;labelPosition=center;verticalLabelPosition=middle;align=center;verticalAlign=middle;fontFamily=Verdana;" vertex="1" parent="1">
          <mxGeometry x="480" y="300.00000000000006" width="70" height="30" as="geometry" />
        </mxCell>
        <mxCell id="9VNMI-Gynohl_PvULlB7-13" value="" style="orthogonalLoop=1;jettySize=auto;html=1;startArrow=none;startFill=0;startSize=2;endSize=2;endArrow=none;endFill=0;sketch=1;curveFitting=1;jiggle=2;entryX=0.8555;entryY=0.145;entryDx=0;entryDy=0;entryPerimeter=0;strokeWidth=0.5;exitX=0;exitY=0.5;exitDx=0;exitDy=0;curved=1;" edge="1" parent="1" source="9VNMI-Gynohl_PvULlB7-11" target="UGnT0N85BE51naAXe4o1-1">
          <mxGeometry relative="1" as="geometry">
            <mxPoint x="465" y="395" as="sourcePoint" />
            <mxPoint x="380" y="320" as="targetPoint" />
            <Array as="points">
              <mxPoint x="450" y="280" />
              <mxPoint x="410" y="260" />
              <mxPoint x="380" y="250" />
            </Array>
          </mxGeometry>
        </mxCell>
        <mxCell id="9VNMI-Gynohl_PvULlB7-14" value="" style="orthogonalLoop=1;jettySize=auto;html=1;startArrow=none;startFill=0;startSize=2;endSize=2;endArrow=none;endFill=0;sketch=1;curveFitting=1;jiggle=2;entryX=1;entryY=0.5;entryDx=0;entryDy=0;entryPerimeter=0;strokeWidth=0.5;exitX=0;exitY=0.5;exitDx=0;exitDy=0;curved=1;" edge="1" parent="1" source="9VNMI-Gynohl_PvULlB7-12" target="UGnT0N85BE51naAXe4o1-1">
          <mxGeometry relative="1" as="geometry">
            <mxPoint x="475" y="275" as="sourcePoint" />
            <mxPoint x="390" y="295" as="targetPoint" />
            <Array as="points">
              <mxPoint x="450" y="300" />
              <mxPoint x="410" y="310" />
            </Array>
          </mxGeometry>
        </mxCell>
        <mxCell id="9VNMI-Gynohl_PvULlB7-15" value="vlanX&lt;br style=&quot;font-size: 10px;&quot;&gt;192.168.X.1/24" style="text;strokeColor=none;align=center;fillColor=none;html=1;verticalAlign=middle;whiteSpace=wrap;rounded=0;fontFamily=Courier New;fontSize=10;fontStyle=1" vertex="1" parent="1">
          <mxGeometry x="480" y="345.29" width="100" height="30" as="geometry" />
        </mxCell>
        <mxCell id="9VNMI-Gynohl_PvULlB7-16" value="vlanX&lt;br style=&quot;font-size: 10px;&quot;&gt;192.168.Y.1/24" style="text;strokeColor=none;align=center;fillColor=none;html=1;verticalAlign=middle;whiteSpace=wrap;rounded=0;fontFamily=Courier New;fontSize=10;fontStyle=1" vertex="1" parent="1">
          <mxGeometry x="430" y="410" width="100" height="30" as="geometry" />
        </mxCell>
        <mxCell id="9VNMI-Gynohl_PvULlB7-17" value="vlan100&lt;br style=&quot;font-size: 10px;&quot;&gt;192.168.100.1/24" style="text;strokeColor=none;align=center;fillColor=none;html=1;verticalAlign=middle;whiteSpace=wrap;rounded=0;fontFamily=Courier New;fontSize=10;fontStyle=1" vertex="1" parent="1">
          <mxGeometry x="132.5" y="390" width="100" height="30" as="geometry" />
        </mxCell>
        <mxCell id="9VNMI-Gynohl_PvULlB7-35" value="tun0" style="text;strokeColor=none;align=center;fillColor=none;html=1;verticalAlign=middle;whiteSpace=wrap;rounded=0;fontFamily=Courier New;fontSize=10;fontStyle=1" vertex="1" parent="1">
          <mxGeometry x="450" y="290" width="40" height="20" as="geometry" />
        </mxCell>
      </root>
    </mxGraphModel>
  </diagram>
</mxfile>
